<?xml version="1.0" standalone="no"?>
<!DOCTYPE svg PUBLIC "-//W3C//DTD SVG 20010904//EN"
 "http://www.w3.org/TR/2001/REC-SVG-20010904/DTD/svg10.dtd">
<svg version="1.0" xmlns="http://www.w3.org/2000/svg"
 width="149.000000pt" height="149.000000pt" viewBox="0 0 149.000000 149.000000"
 preserveAspectRatio="xMidYMid meet">
<metadata>
Created by potrace 1.14, written by Peter Selinger 2001-2017
</metadata>
<g transform="translate(0.000000,149.000000) scale(0.100000,-0.100000)"
fill="#000000" stroke="none">
<path d="M655 1377 c-33 -12 -62 -25 -63 -30 -2 -4 -7 -5 -11 -2 -5 2 -23 0
-42 -6 -101 -30 -198 -40 -247 -25 -21 7 -34 -9 -47 -56 -2 -5 -3 -9 -5 -10
-1 -2 -3 -10 -5 -18 -2 -8 -12 -40 -23 -72 -11 -31 -18 -59 -15 -62 4 -3 1 -6
-6 -6 -7 0 -9 -5 -6 -10 4 -6 2 -16 -3 -23 -9 -12 -32 -76 -36 -100 -1 -7 -4
-17 -8 -22 -21 -34 -19 -85 7 -146 14 -35 28 -72 30 -83 2 -10 11 -29 20 -42
8 -13 13 -24 11 -24 -3 0 10 -36 29 -80 33 -78 41 -87 260 -305 124 -124 232
-225 239 -225 8 0 17 7 20 16 3 8 10 12 16 9 5 -3 10 -1 10 5 0 6 91 102 203
213 151 150 209 215 226 252 13 28 24 55 26 60 1 6 8 24 15 40 7 17 14 33 15
38 2 4 4 9 5 12 1 3 3 8 4 13 1 4 7 17 14 30 7 12 10 26 8 31 -3 5 1 12 10 15
8 3 13 10 10 14 -3 5 1 20 8 34 12 22 12 48 4 116 -1 6 -5 12 -10 12 -4 0 -8
10 -8 23 0 13 -5 28 -12 35 -7 7 -9 12 -5 12 4 0 3 9 -3 21 -7 11 -14 32 -16
47 -3 14 -8 30 -12 36 -7 11 -12 32 -14 54 -1 6 -6 12 -11 12 -6 0 -8 3 -4 6
3 4 0 19 -9 35 -8 16 -12 29 -8 29 4 0 1 6 -5 13 -6 8 -8 17 -5 20 10 9 -24
39 -36 32 -19 -12 -165 -6 -186 7 -5 4 -27 10 -49 14 -22 4 -55 13 -72 21 -18
7 -33 10 -33 7 0 -4 -6 -1 -14 5 -13 11 -33 17 -81 27 -11 2 -47 -7 -80 -19z"/>
</g>
</svg>
